<?xml version="1.0" standalone="no"?>
<!DOCTYPE svg PUBLIC "-//W3C//DTD SVG 20010904//EN"
 "http://www.w3.org/TR/2001/REC-SVG-20010904/DTD/svg10.dtd">
<svg version="1.0" xmlns="http://www.w3.org/2000/svg"
 width="445.000000pt" height="123.000000pt" viewBox="0 0 445.000000 123.000000"
 preserveAspectRatio="xMidYMid meet">
<metadata>
Created by potrace 1.15, written by Peter Selinger 2001-2017
</metadata>
<g transform="translate(0.000000,123.000000) scale(0.100000,-0.100000)"
fill="#000000" stroke="none">
<path d="M402 1149 c-117 -23 -240 -118 -288 -223 -56 -123 -55 -304 3 -423
56 -113 141 -173 275 -194 152 -24 296 9 362 81 40 45 50 83 44 179 l-4 69 32
11 c40 14 106 86 102 109 -3 12 -12 16 -33 14 -17 -2 -120 -7 -230 -10 -124
-4 -208 -12 -221 -19 -35 -20 -104 -102 -104 -123 0 -32 30 -37 50 -9 17 21
27 24 117 27 55 2 116 -1 140 -7 38 -10 44 -16 53 -51 42 -158 -128 -267 -288
-186 -164 83 -239 446 -130 624 37 61 120 87 231 71 79 -11 138 -38 164 -75
27 -38 52 -64 63 -64 5 0 13 12 16 28 4 15 16 49 27 75 27 64 18 71 -109 91
-109 17 -203 19 -272 5z"/>
<path d="M1445 1143 c-70 -21 -183 -135 -227 -229 -33 -68 -33 -71 -33 -214 0
-131 2 -150 24 -198 62 -137 235 -213 452 -199 48 3 106 11 128 18 51 15 96
64 111 120 21 78 -8 92 -60 28 -44 -55 -136 -99 -209 -99 -118 0 -182 42 -235
153 -46 97 -60 164 -60 277 -1 107 19 181 61 231 32 37 50 47 112 59 100 19
224 -21 315 -101 43 -38 76 -46 76 -19 0 6 -20 51 -45 100 l-45 90 -158 -1
c-110 0 -172 -5 -207 -16z"/>
<path d="M3530 1146 c-87 -23 -164 -87 -195 -163 -23 -54 -19 -158 6 -211 36
-73 139 -131 156 -86 3 9 -5 26 -20 42 -59 64 -77 141 -53 226 32 108 98 146
257 146 l82 0 -65 -68 c-115 -119 -155 -231 -146 -412 4 -86 9 -108 37 -165
26 -52 41 -70 79 -92 42 -25 57 -28 137 -28 97 0 136 14 205 71 31 27 34 27
151 25 103 -2 120 0 125 14 5 11 -5 26 -30 46 l-36 30 0 286 0 285 35 -6 c48
-9 60 18 21 51 -25 21 -36 23 -137 23 -89 0 -111 -3 -116 -15 -3 -9 2 -24 11
-34 14 -15 16 -51 16 -272 0 -287 0 -286 -74 -320 -78 -35 -193 -13 -231 44
-25 39 -37 135 -25 217 14 96 48 163 137 262 40 45 72 90 71 98 -3 13 -31 15
-178 17 -114 1 -191 -2 -220 -11z"/>
<path d="M2504 1139 c-156 -11 -230 -37 -291 -101 -47 -49 -63 -96 -63 -185 1
-153 75 -244 217 -268 36 -6 44 -4 50 11 5 13 -1 24 -22 38 -97 70 -136 124
-156 215 -27 129 47 201 223 218 l67 6 -21 -59 c-19 -52 -22 -87 -27 -280 -7
-242 -7 -245 -69 -271 -22 -9 -32 -19 -30 -31 3 -15 21 -17 168 -17 149 0 165
2 168 17 2 11 -6 22 -23 30 -52 23 -55 44 -55 338 l0 270 58 0 c76 -1 169 -48
194 -100 21 -42 23 -118 4 -164 -17 -41 -72 -65 -169 -73 -41 -4 -71 -11 -74
-18 -7 -21 90 -204 154 -290 82 -109 211 -231 281 -263 50 -23 70 -27 157 -27
119 0 163 13 222 68 70 64 52 103 -25 53 -128 -85 -239 -50 -405 124 -91 96
-223 282 -213 299 4 6 19 11 34 11 15 0 52 12 82 26 102 47 134 94 133 194 0
75 -17 115 -65 155 -40 34 -65 44 -158 60 -98 18 -221 23 -346 14z"/>
<path d="M3871 1034 c-95 -101 -133 -179 -139 -284 -5 -86 2 -137 21 -163 10
-14 12 2 12 91 0 101 2 111 33 173 17 37 57 94 87 128 68 77 89 107 80 121
-11 18 -22 11 -94 -66z"/>
<path d="M372 1067 c-49 -19 -78 -51 -102 -114 -42 -111 -36 -238 17 -369 34
-87 45 -89 16 -4 -33 98 -40 199 -19 280 23 89 57 143 103 166 47 22 133 29
193 15 57 -13 63 -7 14 14 -51 22 -179 29 -222 12z"/>
<path d="M1463 1060 c-124 -56 -153 -310 -58 -517 13 -29 27 -53 30 -53 3 0
-1 13 -10 30 -25 49 -45 151 -45 236 0 130 39 227 108 267 45 26 143 33 207
13 43 -13 47 -13 30 0 -58 43 -192 56 -262 24z"/>
<path d="M3523 1059 c-82 -40 -118 -171 -73 -259 23 -45 35 -53 20 -14 -31 81
13 200 89 241 26 13 61 23 86 23 26 0 48 6 55 15 21 25 -123 21 -177 -6z"/>
<path d="M4237 1073 c-4 -3 -7 -124 -7 -268 0 -214 3 -265 15 -281 13 -17 14
9 15 232 0 269 0 269 53 287 29 11 19 27 -13 21 -17 -4 -36 -2 -43 5 -8 6 -17
8 -20 4z"/>
<path d="M2434 1050 c-62 -9 -133 -40 -158 -69 -32 -36 -33 -125 -1 -186 14
-27 22 -41 19 -30 -4 11 -9 45 -11 75 -7 91 43 146 155 172 32 7 57 19 63 30
11 20 13 20 -67 8z"/>
<path d="M3088 936 c5 -77 -9 -125 -51 -173 -33 -37 -116 -83 -152 -83 -39 -1
-45 -13 -23 -49 20 -31 22 -32 29 -13 4 11 27 27 56 38 70 26 120 62 146 103
18 29 22 50 22 111 0 48 -6 85 -16 103 -15 27 -15 26 -11 -37z"/>
<path d="M905 689 c-22 -23 -51 -46 -65 -51 -24 -8 -25 -12 -26 -98 -1 -77 -5
-96 -28 -134 -47 -80 -139 -116 -301 -116 -55 0 -124 6 -152 13 -66 17 -60 4
10 -20 40 -14 82 -18 187 -18 125 0 139 2 191 26 32 15 68 42 83 62 27 35 46
113 46 190 0 26 6 42 22 55 59 46 88 81 88 106 0 35 -8 33 -55 -15z"/>
<path d="M1912 422 c-17 -56 -76 -107 -141 -121 -105 -22 -296 -11 -396 23
-11 4 -4 -2 15 -13 96 -55 360 -69 461 -24 67 30 115 118 86 157 -12 16 -14
14 -25 -22z"/>
<path d="M4294 422 c2 -4 -51 -6 -117 -4 l-122 3 -51 -39 c-67 -50 -122 -65
-228 -61 -77 4 -83 3 -59 -10 33 -17 136 -26 196 -17 25 4 75 25 113 48 67 41
72 42 178 48 68 3 111 9 113 16 2 6 -3 14 -12 18 -9 3 -14 2 -11 -2z"/>
<path d="M3480 189 c-63 -56 -126 -72 -254 -67 -55 3 -110 8 -121 12 -11 3 0
-4 25 -16 62 -30 204 -37 286 -13 82 24 164 108 118 121 -5 2 -29 -15 -54 -37z"/>
</g>
</svg>
